<?xml version="1.0" standalone="no"?>
<!DOCTYPE svg PUBLIC "-//W3C//DTD SVG 20010904//EN"
 "http://www.w3.org/TR/2001/REC-SVG-20010904/DTD/svg10.dtd">
<svg version="1.0" xmlns="http://www.w3.org/2000/svg"
 width="600.000000pt" height="600.000000pt" viewBox="0 0 600.000000 600.000000"
 preserveAspectRatio="xMidYMid meet">
<metadata>
Created by potrace 1.14, written by Peter Selinger 2001-2017
</metadata>
<g transform="translate(0.000000,600.000000) scale(0.100000,-0.100000)"
fill="#000000" stroke="none">
<path d="M4233 5595 c-16 -11 -26 -37 -38 -93 -76 -350 -201 -768 -298 -999
-18 -43 -40 -94 -48 -113 -38 -91 -175 -357 -234 -455 -349 -577 -821 -970
-1327 -1103 -36 -10 -38 -9 -33 11 4 19 23 123 39 217 2 14 7 36 10 50 3 14 8
43 11 64 3 21 7 48 10 60 3 12 7 32 9 46 3 14 16 86 30 160 14 74 27 149 30
165 5 28 82 441 92 495 2 14 9 50 15 80 6 30 12 66 15 80 2 14 9 50 15 80 26
137 70 380 75 410 6 37 35 191 41 220 11 53 6 83 -16 102 -29 23 -43 23 -70 1
-21 -18 -24 -25 -35 -99 -4 -22 -13 -73 -21 -114 -8 -41 -17 -91 -20 -110 -3
-19 -12 -69 -20 -110 -8 -41 -16 -87 -19 -101 -2 -14 -13 -73 -25 -130 -11
-57 -22 -115 -25 -129 -4 -27 -102 -556 -111 -605 -3 -16 -17 -91 -30 -165
-14 -74 -27 -146 -30 -160 -5 -23 -28 -155 -40 -225 -3 -16 -10 -52 -16 -80
-5 -27 -12 -66 -15 -85 -9 -62 -10 -63 -51 -37 -105 65 -224 101 -333 102 -98
0 -140 -18 -164 -70 -45 -95 59 -209 231 -254 52 -14 148 -24 211 -23 34 0 52
-3 52 -11 0 -7 -7 -50 -16 -97 -8 -47 -21 -121 -29 -165 -7 -44 -16 -93 -19
-110 -7 -42 -95 -572 -102 -615 -6 -37 -11 -73 -18 -117 -12 -73 -45 -304 -51
-352 -4 -30 -8 -63 -10 -73 -2 -11 -7 -45 -10 -76 -3 -31 -8 -70 -10 -87 -10
-73 -13 -276 -5 -306 10 -34 27 -49 68 -61 36 -10 79 35 122 126 71 154 75
176 35 202 -37 24 -69 12 -93 -38 l-21 -43 5 60 c5 62 11 121 19 165 2 14 7
48 10 75 14 116 92 619 130 835 2 14 16 95 31 180 27 160 30 178 39 220 2 14
7 41 10 60 3 19 7 46 10 60 3 14 7 41 10 60 10 67 17 91 24 88 33 -13 216
-252 386 -503 426 -630 434 -642 579 -815 219 -261 414 -392 607 -407 81 -7
151 8 238 50 86 42 132 85 124 118 -14 56 -51 64 -111 24 -87 -57 -145 -74
-239 -72 -96 3 -134 17 -251 94 -54 35 -183 158 -264 249 -69 79 -237 312
-423 589 -293 435 -415 605 -503 697 l-35 37 27 11 c15 5 32 10 37 10 21 0
236 93 328 142 636 339 1142 1052 1434 2023 43 142 119 435 130 500 3 17 11
54 17 83 15 66 8 95 -25 110 -32 15 -26 15 -52 -3z m-2313 -2716 c64 -22 165
-77 145 -80 -117 -15 -281 27 -336 88 l-24 26 75 -6 c41 -3 104 -16 140 -28z"/>
</g>
</svg>
